<svg xmlns="http://www.w3.org/2000/svg" aria-hidden="true" style="width:0;height:0;position:absolute;overflow:hidden"><defs><symbol id="icon-bottom-arrow" viewBox="0 0 32 32"><path fill="#4f2ee8" d="M15.055 17.868a1.328 1.328 0 0 0 1.89.001l6.109-6.121a1.333 1.333 0 0 1 1.89 1.88l-6.119 6.121c-.724.723-1.723 1.169-2.826 1.169s-2.103-.447-2.826-1.169l-6.121-6.121a1.334 1.334 0 1 1 1.894-1.88l6.106 6.119z" style="fill:var(--color1,#4f2ee8)"/></symbol><symbol id="icon-burger-menu" viewBox="0 0 32 32"><path stroke-linecap="round" stroke-linejoin="round" stroke-width="2.286" d="M22.666 13.334H4M28 8H4m24 10.666H4M22.666 24H4"/></symbol><symbol id="icon-circle-switcher" viewBox="0 0 32 32"><path d="M14.769 24.615c6.118 0 11.077-4.959 11.077-11.077S20.887 2.461 14.769 2.461 3.692 7.42 3.692 13.538s4.959 11.077 11.077 11.077z"/></symbol><symbol id="icon-close" viewBox="0 0 32 32"><path stroke-linecap="round" stroke-linejoin="round" stroke-width="3.429" d="M24 8 8 24M8 8l16 16"/></symbol><symbol id="icon-lock" viewBox="0 0 32 32"><path stroke-linecap="round" stroke-linejoin="round" stroke-width="2.286" d="M22.666 14.666v-4a6.666 6.666 0 0 0-13.332 0v4M10.4 28h11.2c2.24 0 3.36 0 4.216-.435a4.03 4.03 0 0 0 1.738-1.726l.011-.022c.435-.856.435-1.976.435-4.216v-.534c0-2.24 0-3.36-.435-4.216a4.03 4.03 0 0 0-1.726-1.738l-.022-.011c-.856-.434-1.976-.434-4.216-.434h-11.2c-2.24 0-3.36 0-4.216.434a4.03 4.03 0 0 0-1.738 1.726l-.011.022c-.435.857-.435 1.977-.435 4.217v.533c0 2.24 0 3.36.435 4.216a4.03 4.03 0 0 0 1.726 1.738l.022.011C7.04 28 8.16 28 10.4 28z"/></symbol><symbol id="icon-logo" viewBox="0 0 126 32"><path fill="#f6f6f6" d="m0 2.286 14.008 13.862 13.421 13.567V2.286H0z" style="fill:var(--color2,#f6f6f6)"/><path fill="#f6f6f6" d="m3.821 5.91 10.237 10.139 9.649 9.845H3.821V5.91z" style="fill:var(--color2,#f6f6f6)"/><path fill="#4f2ee8" d="M23.771 25.959 13.533 15.82 3.885 5.975h19.886v19.984z" style="fill:var(--color1,#4f2ee8)"/><path fill="#4f2ee8" d="m7.935 10.024 11.657 11.658H7.935V10.025z" style="fill:var(--color1,#4f2ee8)"/><path fill="#f6f6f6" d="m7.935 10.024 11.657 11.658V10.025H7.935z" style="fill:var(--color2,#f6f6f6)"/><path d="M47.659 12.266c0-2.366-1.749-3.703-4.773-3.703h-6.315v14.709h6.665c3.045 0 4.999-1.461 4.999-4.299 0-2.201-1.317-3.333-2.859-3.6v-.041c1.214-.411 2.283-1.255 2.283-3.065zm-8.64 2.387v-4.011h3.929c1.461 0 2.263.72 2.263 2.016s-.658 1.995-2.407 1.995h-3.785zm0 1.83h4.299c1.543 0 2.469.843 2.469 2.345 0 1.378-.638 2.366-2.736 2.366h-4.032v-4.711zm15.498 7.098c-3.291 0-5.287-2.283-5.287-5.554s1.995-5.554 5.287-5.554c3.291 0 5.287 2.283 5.287 5.554s-1.995 5.554-5.287 5.554zm0-1.77c2.057 0 3.127-1.625 3.127-3.785 0-2.181-1.07-3.785-3.127-3.785s-3.127 1.605-3.127 3.785c0 2.16 1.07 3.785 3.127 3.785zm11.51 1.77c-3.291 0-5.287-2.283-5.287-5.554s1.995-5.554 5.287-5.554c3.291 0 5.287 2.283 5.287 5.554s-1.995 5.554-5.287 5.554zm0-1.77c2.057 0 3.127-1.625 3.127-3.785 0-2.181-1.07-3.785-3.127-3.785S62.9 15.846 62.9 18.026c0 2.16 1.07 3.785 3.127 3.785zm6.78-13.248v14.709h2.16v-3.806l1.461-1.378 3.312 5.184h2.592l-4.423-6.603L81.9 12.76h-2.654l-4.279 4.217V8.563h-2.16zm14.731 8.352c-1.522-.35-2.695-.432-2.695-1.502 0-.741.699-1.234 1.995-1.234 1.687 0 2.098.843 2.242 1.666h2.098c-.144-1.831-1.502-3.374-4.361-3.374-2.633 0-4.155 1.378-4.155 3.106 0 2.386 2.263 2.715 3.929 3.106 1.543.37 2.798.473 2.798 1.79 0 .658-.638 1.399-2.139 1.399-2.222 0-2.715-.967-2.818-2.098h-2.098c.103 2.222 1.563 3.806 4.958 3.806 2.551 0 4.279-1.255 4.279-3.271 0-2.51-2.098-2.942-4.032-3.394zm11.095-4.443c-1.769 0-2.859.823-3.415 1.646h-.041V8.564h-2.16v14.709h2.16v-6.398c0-1.563 1.131-2.571 2.715-2.571 1.502 0 2.098.905 2.098 2.325v6.645h2.181v-7.262c0-2.407-1.543-3.538-3.538-3.538zm10.162 9.339c-1.913 0-3.045-1.461-3.045-3.23h8.064c0-3.744-1.666-6.11-5.061-6.11-3.168 0-5.163 2.139-5.163 5.554 0 3.291 1.995 5.554 5.266 5.554 2.695 0 4.258-1.522 4.793-3.518h-2.16c-.185.638-.905 1.749-2.695 1.749zm-.041-7.632c1.749 0 2.901 1.173 2.901 2.798h-5.904c0-1.625 1.255-2.798 3.003-2.798zm6.583-5.616v14.709h2.181V8.563h-2.181zm9.236 1.77V8.564a7.32 7.32 0 0 0-1.438-.144h-.002c-1.728 0-2.674.782-2.674 3.003v1.337h-1.502v1.769h1.502v8.743h2.181v-8.743h1.934V12.76h-1.934v-1.152c0-1.193.535-1.337 1.934-1.275z"/></symbol><symbol id="icon-mail" viewBox="0 0 32 32"><path stroke-linecap="round" stroke-linejoin="round" stroke-width="2.286" d="m28.666 24-8.857-8m-7.618 0-8.857 8M2.666 9.334l10.887 7.621c.881.617 1.322.926 1.802 1.045.423.106.866.106 1.289 0 .48-.119.921-.427 1.802-1.045l10.887-7.621M9.066 26.666h13.867c2.24 0 3.36 0 4.216-.435a4.03 4.03 0 0 0 1.738-1.726l.011-.022c.434-.855.434-1.976.434-4.216v-8.533c0-2.24 0-3.36-.434-4.217a4.027 4.027 0 0 0-1.726-1.737l-.022-.011c-.857-.435-1.977-.435-4.217-.435H9.068c-2.24 0-3.36 0-4.216.435a4.03 4.03 0 0 0-1.738 1.726l-.01.022c-.434.855-.434 1.975-.434 4.216v8.533c0 2.24 0 3.36.434 4.217A4.027 4.027 0 0 0 4.83 26.22l.022.011c.856.435 1.977.435 4.217.435z"/></symbol><symbol id="icon-right-arrow" viewBox="0 0 32 32"><path fill="none" stroke="#eac645" stroke-linecap="round" stroke-linejoin="round" stroke-width="3.2" d="M5.333 16h21.334m0 0-8-8m8 8-8 8" style="stroke:var(--color4,#eac645)"/></symbol><symbol id="icon-top-arrow" viewBox="0 0 32 32"><path d="M4.5 19.6 15.7 8.367c.133-.133.277-.227.433-.283.146-.053.314-.084.489-.084h.011-.001c.177 0 .344.028.5.084.17.064.315.16.433.282L28.799 19.6c.311.311.467.7.467 1.167s-.167.867-.5 1.2c-.292.308-.705.5-1.162.5h-.01c-.457 0-.87-.192-1.161-.499l-.001-.001-9.8-9.8-9.8 9.8c-.311.311-.693.467-1.149.467s-.851-.167-1.184-.5a1.597 1.597 0 0 1-.5-1.162v-.01c0-.457.192-.87.499-1.161l.001-.001z"/></symbol><symbol id="icon-trash" viewBox="0 0 32 32"><path stroke-linecap="round" stroke-linejoin="round" stroke-width="2.909" d="M12 4h8M4 8h24m-2.666 0-.935 14.026c-.141 2.103-.211 3.156-.665 3.953a4.031 4.031 0 0 1-1.707 1.61l-.023.01c-.828.4-1.881.4-3.99.4h-4.026c-2.109 0-3.162 0-3.99-.4a4.028 4.028 0 0 1-1.721-1.601l-.01-.019c-.454-.797-.524-1.85-.665-3.953L6.667 8m6.667 6v6.666M18.666 14v6.666" style="stroke:var(--color5,#fff)"/></symbol><symbol id="icon-user" viewBox="0 0 32 32"><path fill="#4f2ee8" d="M5.334 29.334c.107-5.81 4.841-10.478 10.666-10.478s10.56 4.669 10.666 10.468v.01H5.334zm10.666-12h-.002A7.998 7.998 0 0 1 8 9.336v-.004a7.998 7.998 0 0 1 7.998-7.998h.004A7.998 7.998 0 0 1 24 9.332v.004a7.998 7.998 0 0 1-7.998 7.998H16z" style="fill:var(--color1,#4f2ee8)"/></symbol><symbol id="icon-shop" viewBox="0 0 20 20"><path d="M15.833 5.833h-2.5V5a3.333 3.333 0 0 0-6.666 0v.833h-2.5a.833.833 0 0 0-.834.834v9.166a2.5 2.5 0 0 0 2.5 2.5h8.334a2.5 2.5 0 0 0 2.5-2.5V6.667a.833.833 0 0 0-.834-.834ZM8.333 5a1.667 1.667 0 1 1 3.334 0v.833H8.333V5ZM15 15.833a.833.833 0 0 1-.833.834H5.833A.833.833 0 0 1 5 15.833V7.5h1.667v.833a.833.833 0 1 0 1.666 0V7.5h3.334v.833a.834.834 0 0 0 1.666 0V7.5H15v8.333Z"/></symbol><symbol id="icon-trident" viewBox="0 0 20 32"><path fill="#fff" style="fill:var(--color1,#fff)" d="M9.005 30.888a8.64 8.64 0 0 1-3.414-5.351H0V2.42c2.991 1.443 5.153 4.599 5.388 7.876l.846 6.493-.407-.045c-.893 0-1.676.812-1.676 1.608 0 .752.595 1.383 1.378 1.548l1.018.226c1.676-3.051 2.631-6.042 2.631-8.973 0-2.645-.36-5.291-.423-7.996 0-1.202.486-2.3 1.253-3.156.783.857 1.253 1.954 1.253 3.156 0 2.705-.423 5.351-.423 7.996 0 2.931.955 5.922 2.631 8.973l1.018-.226c.783-.165 1.378-.812 1.378-1.548 0-.812-.783-1.608-1.676-1.608l-.423.06.846-6.493c.423-3.277 2.396-6.448 5.388-7.876v23.117h-5.576c-.423 2.179-1.613 4.148-3.414 5.351-.423.286-.783.631-1.018 1.097-.219-.466-.579-.812-.987-1.112zM2.647 17.556c.235-.857.893-1.608 1.738-2.074l-.658-5.351a8.288 8.288 0 0 0-2.036-4.374v11.784h.955v.015zm2.819 6.373c0-.812.125-1.548.298-2.3l-.783-.18c-1.143-.346-2.036-1.203-2.334-2.3h-.955v4.78h3.774zm3.712 0c0-.977-.783-1.834-1.801-1.954-.172.631-.298 1.263-.298 1.954h2.099zm0 1.623H7.314c.298 1.263.955 2.42 1.864 3.397v-3.397zm2.631-5.005c-.72-1.262-1.378-2.585-1.801-3.968-.423 1.383-1.081 2.706-1.801 3.968.72.165 1.316.631 1.801 1.157.486-.526 1.081-.992 1.801-1.157zm1.143 3.382c0-.691-.125-1.323-.297-1.954-1.018.12-1.801.977-1.801 1.954h2.099zm-.235 1.623h-1.864v3.397c.908-.992 1.566-2.134 1.864-3.397zm5.623-1.623v-4.78h-.955c-.298 1.097-1.206 1.954-2.334 2.3l-.783.18c.172.752.298 1.488.298 2.3h3.774zm0-6.373V5.757c-1.081 1.202-1.864 2.706-2.036 4.374l-.658 5.351c.846.466 1.504 1.203 1.739 2.074h.955z"/></symbol><symbol id="icon-sun" viewBox="0 0 32 32"><path d="M7.813 3.44a1.023 1.023 0 1 1 1.768-1.03l.003.005 1.318 2.273a1.028 1.028 0 0 1-1.77 1.046l-.003-.005L7.814 3.44zm8.19 3.386A9.174 9.174 0 1 1 9.511 9.51a9.122 9.122 0 0 1 6.477-2.688h.013H16zm-.818-5.784L15.184.99a1.03 1.03 0 0 1 2.058 0l-.001.054v-.002 2.62a1.03 1.03 0 1 1-2.057.052l.001-.054v.002-2.62zm7.599 1.588a1.023 1.023 0 1 1 1.77 1.019l.002-.004-1.318 2.281a1.023 1.023 0 1 1-1.77-1.025l-.003.004 1.318-2.279zm5.776 5.183a1.024 1.024 0 0 1 1.03 1.77l-.005.003-2.279 1.318a1.028 1.028 0 0 1-1.046-1.77l.005-.003 2.294-1.318zm2.411 7.375.052-.001a1.03 1.03 0 0 1 0 2.058l-.054-.001h.003-2.633l-.052.001a1.03 1.03 0 1 1 .054-2.057h-.003zm-1.601 7.598a1.025 1.025 0 1 1-1.022 1.771l.004.002-2.281-1.318a1.025 1.025 0 0 1 .465-1.935c.203 0 .393.059.552.162l-.004-.002 2.279 1.318zm-5.18 5.774a1.024 1.024 0 0 1-1.77 1.03l-.003-.005-1.323-2.279a1.028 1.028 0 0 1 1.77-1.046l.003.005 1.318 2.281zm-7.375 2.411a1.03 1.03 0 1 1-2.057.052l.001-.054v.003-2.633l-.001-.052a1.03 1.03 0 0 1 2.058 0l-.001.054v-.003 2.633zM9.216 29.37a1.024 1.024 0 0 1-1.771-1.023l-.003.006 1.318-2.281a1.023 1.023 0 1 1 1.77 1.016l.002-.004-1.318 2.279zM3.44 24.19a1.024 1.024 0 0 1-1.03-1.77l.005-.003 2.273-1.323a1.03 1.03 0 0 1 1.047 1.777l-.005.003-2.281 1.318zm-2.398-7.375-.052.001a1.03 1.03 0 1 1 .054-2.057h-.002 2.62l.052-.001a1.03 1.03 0 0 1 0 2.058l-.054-.001h.002zM2.63 9.216a1.023 1.023 0 1 1 1.019-1.77l-.004-.002 2.281 1.318a1.023 1.023 0 1 1-1.025 1.77l.004.003-2.276-1.318z"/></symbol><symbol id="icon-header-bottom-arrow" viewBox="0 0 23 26"><path fill="#fff" d="M4.792 9.75h13.416l-6.03 6.817a.906.906 0 0 1-.678.318.906.906 0 0 1-.678-.318L4.792 9.75Z"/></symbol><symbol id="icon-moon" viewBox="0 0 16 16"><path d="M6 .278a.768.768 0 0 1 .08.858 7.208 7.208 0 0 0-.878 3.46c0 4.021 3.278 7.277 7.318 7.277.527 0 1.04-.055 1.533-.16a.787.787 0 0 1 .81.316.733.733 0 0 1-.031.893A8.349 8.349 0 0 1 8.344 16C3.734 16 0 12.286 0 7.71 0 4.266 2.114 1.312 5.124.06A.752.752 0 0 1 6 .278z"/><path d="M10.794 3.148a.217.217 0 0 1 .412 0l.387 1.162c.173.518.579.924 1.097 1.097l1.162.387a.217.217 0 0 1 0 .412l-1.162.387a1.734 1.734 0 0 0-1.097 1.097l-.387 1.162a.217.217 0 0 1-.412 0l-.387-1.162A1.734 1.734 0 0 0 9.31 6.593l-1.162-.387a.217.217 0 0 1 0-.412l1.162-.387a1.734 1.734 0 0 0 1.097-1.097l.387-1.162zM13.863.099a.145.145 0 0 1 .274 0l.258.774c.115.346.386.617.732.732l.774.258a.145.145 0 0 1 0 .274l-.774.258a1.156 1.156 0 0 0-.732.732l-.258.774a.145.145 0 0 1-.274 0l-.258-.774a1.156 1.156 0 0 0-.732-.732l-.774-.258a.145.145 0 0 1 0-.274l.774-.258c.346-.115.617-.386.732-.732L13.863.1z"/></symbol></defs></svg>