<svg aria-hidden="true" overflow="hidden" style="position:absolute;width:0;height:0"><defs><symbol id="icon-user" viewBox="0 0 23 32"><path fill="var(--color1, #4f2ee8)" d="M.3 31a11.3 11.3 0 1 1 22.5 0H.3zm11.3-12.7a8.4 8.4 0 1 1 0-16.9 8.4 8.4 0 0 1 0 16.9z"/></symbol><symbol id="icon-align-left" viewBox="0 0 32 32"><path stroke-linecap="round" stroke-linejoin="round" stroke-width="2.3" d="M22.7 13.3H4M28 8H4m24 10.7H4M22.7 24H4"/></symbol><symbol id="icon-arrow-down" viewBox="0 0 32 32"><path d="M7.7 12h16.6l-7.5 8.4c-.2.2-.5.4-.8.4s-.6-.2-.8-.4L7.7 12z"/></symbol><symbol id="icon-arrow-narrow-right" viewBox="0 0 32 32"><path stroke-linecap="round" stroke-linejoin="round" stroke-width="3.2" d="M5.3 16h21.4m0 0-8-8m8 8-8 8"/></symbol><symbol id="icon-arrow-up" viewBox="0 0 32 32"><path d="M4.5 19.6 15.7 8.4c.1-.2.3-.3.4-.3l.5-.1h.5l.5.4 11.2 11.2c.3.3.5.7.5 1.2s-.2.8-.5 1.2a1.6 1.6 0 0 1-2.4 0l-9.8-9.8L6.8 22c-.3.3-.7.4-1.1.4s-.9-.1-1.2-.5-.5-.7-.5-1.1c0-.5.2-.9.5-1.2z"/></symbol><symbol id="icon-close" viewBox="0 0 32 32"><path stroke-linecap="round" stroke-linejoin="round" stroke-width="3.4" d="M24 8 8 24M8 8l16 16"/></symbol><symbol id="icon-lock" viewBox="0 0 32 32"><path stroke-linecap="round" stroke-linejoin="round" stroke-width="2.3" d="M22.7 14.7v-4a6.7 6.7 0 0 0-13.4 0v4M10.4 28h11.2c2.2 0 3.4 0 4.2-.4a4 4 0 0 0 1.8-1.8c.4-.8.4-2 .4-4.2v-.5c0-2.3 0-3.4-.4-4.2a4 4 0 0 0-1.8-1.8c-.8-.4-2-.4-4.2-.4H10.4c-2.2 0-3.4 0-4.2.4a4 4 0 0 0-1.8 1.8c-.4.8-.4 2-.4 4.2v.5c0 2.2 0 3.4.4 4.2a4 4 0 0 0 1.8 1.8c.8.4 2 .4 4.2.4z"/></symbol><symbol id="icon-mail" viewBox="0 0 32 32"><path stroke-linecap="round" stroke-linejoin="round" stroke-width="2.3" d="m28.7 24-8.9-8m-7.6 0-8.9 8M2.7 9.3 13.6 17c.8.6 1.3.9 1.8 1h1.2c.5-.1 1-.4 1.8-1l11-7.7M9 26.7h13.8c2.3 0 3.4 0 4.3-.5a4 4 0 0 0 1.7-1.7c.4-.9.4-2 .4-4.2v-8.6c0-2.2 0-3.3-.4-4.2a4 4 0 0 0-1.7-1.7c-1-.5-2-.5-4.3-.5H9.1c-2.3 0-3.4 0-4.2.5A4 4 0 0 0 3 7.5c-.4.9-.4 2-.4 4.2v8.6c0 2.2 0 3.3.4 4.2a4 4 0 0 0 1.8 1.7c.8.5 2 .5 4.2.5z"/></symbol><symbol id="icon-switcher-checkbox" viewBox="0 0 32 32"><path d="M14.8 24.6a11 11 0 1 0 0-22.1 11 11 0 0 0 0 22.1z"/></symbol><symbol id="icon-trash" viewBox="0 0 32 32"><path stroke-linecap="round" stroke-linejoin="round" stroke-width="2.9" d="M12 4h8M4 8h24m-2.7 0-.9 14c-.1 2.1-.2 3.2-.7 4a4 4 0 0 1-1.7 1.6c-.8.4-1.9.4-4 .4h-4c-2.1 0-3.2 0-4-.4A4 4 0 0 1 8.3 26c-.5-.8-.6-1.9-.7-4l-1-14m6.7 6v6.7m5.4-6.7v6.7"/></symbol><symbol id="icon-uil_cart" viewBox="0 0 32 32"><path d="M25.3 9.3h-4V8a5.3 5.3 0 1 0-10.6 0v1.3h-4c-.4 0-.7.2-1 .4s-.4.6-.4 1v14.6a4 4 0 0 0 4 4h13.4a4 4 0 0 0 4-4V10.7c0-.4-.2-.7-.4-1s-.6-.4-1-.4zM13.3 8a2.7 2.7 0 0 1 5.4 0v1.3h-5.4V8zM24 25.3c0 .4-.1.7-.4 1s-.6.4-1 .4H9.4c-.3 0-.7-.2-1-.4s-.3-.6-.3-1V12h2.7v1.3a1.3 1.3 0 0 0 2.2 1c.3-.3.4-.6.4-1V12h5.4v1.3a1.3 1.3 0 1 0 2.6 0V12H24v13.3z"/></symbol></defs></svg>